<?xml version="1.0" standalone="no"?>
<!DOCTYPE svg PUBLIC "-//W3C//DTD SVG 20010904//EN" "http://www.w3.org/TR/2001/REC-SVG-20010904/DTD/svg10.dtd">
<svg version="1.0" xmlns="http://www.w3.org/2000/svg" width="256" height="256" viewBox="0 0 256 256"
  preserveAspectRatio="xMidYMid meet">

  <!-- 円形に切り抜くマスク -->
  <defs>
    <mask id="circle-mask" maskContentUnits="objectBoundingBox">
      <circle cx="0.5" cy="0.5" r="0.5" fill="white" />
    </mask>
  </defs>

  <g mask="url(#circle-mask)">
    <rect width="95%" height="95%" fill="white" />
  </g>


  <!-- translateとscaleで馬の位置調整 -->
  <g transform="translate(25,215) scale(0.08,-0.08)" fill="#000000" stroke="none">
    <path d="M1537 2118 c-19 -29 -272 -424 -564 -878 -291 -454 -533 -831 -537
    -838 -6 -10 108 -12 569 -10 l577 3 95 240 c52 131 96 241 98 243 2 2 106 -17
    232 -42 125 -25 245 -46 266 -46 67 0 111 32 191 140 41 54 79 115 86 135 13
    39 7 93 -15 136 -8 14 -191 180 -408 367 l-394 341 -43 113 c-24 62 -50 121
    -58 131 -28 32 -59 21 -95 -35z m310 -670 c39 -42 31 -108 -17 -133 -43 -22
    -68 -19 -101 14 -32 33 -36 58 -14 101 17 33 27 38 76 39 25 1 42 -6 56 -21z" />
    <path d="M1210 1818 c-14 -5 -72 -23 -130 -40 -121 -34 -183 -67 -211 -111
    -18 -28 -19 -44 -14 -137 6 -95 4 -108 -14 -138 -25 -39 -53 -51 -149 -62
    -122 -13 -155 -63 -132 -199 11 -63 10 -75 -7 -108 -28 -56 -60 -74 -147 -83
    -87 -8 -116 -24 -141 -76 -16 -34 -17 -46 -5 -115 20 -125 -6 -169 -134 -228
    -66 -30 -99 -60 -115 -103 l-11 -28 154 0 153 0 460 707 c253 390 463 714 467
    721 8 14 9 14 -24 0z" />
  </g>
</svg>